<?xml version="1.0" encoding="UTF-8"?>
<!-- Generator: visioncortex VTracer 0.6.3 -->
<svg version="1.1" xmlns="http://www.w3.org/2000/svg" width="1280" height="129">
<path d="M0 0 C4.7 0.01 9.4 0.01 14.1 -0.01 C46.01 -0.09 77.7 0.39 109.5 3.2 C111.45 3.37 113.41 3.54 115.36 3.7 C122.04 4.27 128.7 4.92 135.36 5.64 C136.32 5.74 137.29 5.84 138.28 5.95 C208.52 13.44 277.15 27.84 345.55 45.1 C419 63.62 493.17 77.08 568.67 83.64 C569.54 83.71 570.41 83.79 571.31 83.87 C603.47 86.68 635.68 87.73 667.95 87.65 C672.3 87.64 676.66 87.64 681.02 87.65 C712.82 87.72 744.55 86.48 776.23 83.64 C777.16 83.55 778.1 83.47 779.05 83.39 C844.69 77.55 911.32 66.53 973.94 45.57 C977.61 44.39 977.61 44.39 979.61 44.39 C979.61 72.44 979.61 100.49 979.61 129.39 C557.21 129.39 134.81 129.39 -300.39 129.39 C-300.39 101.01 -300.39 72.63 -300.39 43.39 C-262.8 31.64 -262.8 31.64 -248.89 28.26 C-248.07 28.06 -247.26 27.86 -246.41 27.65 C-205.06 17.5 -163.06 10.45 -120.77 5.64 C-119.95 5.54 -119.13 5.45 -118.29 5.35 C-111.67 4.59 -105.03 3.97 -98.39 3.39 C-96.99 3.26 -95.6 3.13 -94.2 3 C-62.81 0.18 -31.5 -0.08 0 0 Z " fill="#FA987F" transform="translate(300.3913269042969,-0.38570737838745117)"/>
</svg>
